<svg xmlns="http://www.w3.org/2000/svg" viewBox="0 0 24 24" fill="currentColor">
  <path d="M12 22c5.523 0 10-4.477 10-10S17.523 2 12 2 2 6.477 2 12s4.477 10 10 10zm0-18c4.411 0 8 3.589 8 8s-3.589 8-8 8-8-3.589-8-8 3.589-8 8-8zm6.5 8.5c0-.813-.669-1.5-1.5-1.5-.423 0-.8.18-1.07.47-.84-.59-2.01-.95-3.32-.99l.73-2.22 1.93.53c.03.54.48.97 1.02.97.56 0 1.02-.46 1.02-1.02s-.46-1.02-1.02-1.02c-.36 0-.67.19-.86.47L13.17 6c-.13-.03-.25-.04-.38-.01-.12.03-.22.1-.28.2l-1.13 3.37c-1.25.06-2.35.42-3.15.99-.27-.29-.65-.49-1.07-.49-.83 0-1.5.67-1.5 1.5 0 .66.43 1.21 1.03 1.41-.03.16-.05.33-.05.5 0 1.93 2.36 3.5 5.25 3.5s5.25-1.57 5.25-3.5c0-.17-.01-.33-.04-.49.6-.21 1.02-.76 1.02-1.42zm-2.21.53c.28.36.53.78.7 1.21-1.78.63-3.7.63-5.49 0 .18-.43.43-.85.71-1.21.28-.36.63-.66 1.04-.87.41-.22.85-.33 1.29-.33.46 0 .9.11 1.31.33.41.21.76.51 1.04.87z"/>
  <circle cx="16.73" cy="9.26" r=".97"/>
  <circle cx="7.26" cy="9.26" r=".97"/>
</svg> 